<mxfile host="app.diagrams.net" agent="Mozilla/5.0 (Windows NT 10.0; Win64; x64) AppleWebKit/537.36 (KHTML, like Gecko) Chrome/133.0.0.0 Safari/537.36" version="26.1.0">
  <diagram id="C5RBs43oDa-KdzZeNtuy" name="Page-1">
    <mxGraphModel dx="1434" dy="790" grid="1" gridSize="10" guides="1" tooltips="1" connect="1" arrows="1" fold="1" page="1" pageScale="1" pageWidth="2336" pageHeight="1654" math="0" shadow="0">
      <root>
        <mxCell id="WIyWlLk6GJQsqaUBKTNV-0" />
        <mxCell id="WIyWlLk6GJQsqaUBKTNV-1" parent="WIyWlLk6GJQsqaUBKTNV-0" />
        <mxCell id="jeXCtuGHeavRpmJprHFc-5" style="edgeStyle=orthogonalEdgeStyle;rounded=0;orthogonalLoop=1;jettySize=auto;html=1;" edge="1" parent="WIyWlLk6GJQsqaUBKTNV-1" source="WIyWlLk6GJQsqaUBKTNV-3" target="WIyWlLk6GJQsqaUBKTNV-6">
          <mxGeometry relative="1" as="geometry" />
        </mxCell>
        <mxCell id="jeXCtuGHeavRpmJprHFc-16" style="edgeStyle=orthogonalEdgeStyle;rounded=0;orthogonalLoop=1;jettySize=auto;html=1;entryX=0.5;entryY=0;entryDx=0;entryDy=0;" edge="1" parent="WIyWlLk6GJQsqaUBKTNV-1" source="WIyWlLk6GJQsqaUBKTNV-3" target="jeXCtuGHeavRpmJprHFc-15">
          <mxGeometry relative="1" as="geometry" />
        </mxCell>
        <mxCell id="WIyWlLk6GJQsqaUBKTNV-3" value="Main Menu is open" style="rounded=1;whiteSpace=wrap;html=1;fontSize=12;glass=0;strokeWidth=1;shadow=0;" parent="WIyWlLk6GJQsqaUBKTNV-1" vertex="1">
          <mxGeometry x="305" y="80" width="120" height="40" as="geometry" />
        </mxCell>
        <mxCell id="jeXCtuGHeavRpmJprHFc-41" style="edgeStyle=orthogonalEdgeStyle;rounded=0;orthogonalLoop=1;jettySize=auto;html=1;" edge="1" parent="WIyWlLk6GJQsqaUBKTNV-1" source="WIyWlLk6GJQsqaUBKTNV-6" target="jeXCtuGHeavRpmJprHFc-40">
          <mxGeometry relative="1" as="geometry" />
        </mxCell>
        <mxCell id="WIyWlLk6GJQsqaUBKTNV-6" value="New Game&lt;div&gt;Clicked&lt;/div&gt;" style="rhombus;whiteSpace=wrap;html=1;shadow=0;fontFamily=Helvetica;fontSize=12;align=center;strokeWidth=1;spacing=6;spacingTop=-4;" parent="WIyWlLk6GJQsqaUBKTNV-1" vertex="1">
          <mxGeometry x="35" y="170" width="100" height="80" as="geometry" />
        </mxCell>
        <mxCell id="jeXCtuGHeavRpmJprHFc-7" style="edgeStyle=orthogonalEdgeStyle;rounded=0;orthogonalLoop=1;jettySize=auto;html=1;" edge="1" parent="WIyWlLk6GJQsqaUBKTNV-1" source="jeXCtuGHeavRpmJprHFc-2" target="jeXCtuGHeavRpmJprHFc-6">
          <mxGeometry relative="1" as="geometry" />
        </mxCell>
        <mxCell id="jeXCtuGHeavRpmJprHFc-2" value="Settings Clicked" style="strokeWidth=2;html=1;shape=mxgraph.flowchart.decision;whiteSpace=wrap;" vertex="1" parent="WIyWlLk6GJQsqaUBKTNV-1">
          <mxGeometry x="195" y="170" width="100" height="80" as="geometry" />
        </mxCell>
        <mxCell id="jeXCtuGHeavRpmJprHFc-4" style="edgeStyle=orthogonalEdgeStyle;rounded=0;orthogonalLoop=1;jettySize=auto;html=1;entryX=0.5;entryY=0;entryDx=0;entryDy=0;entryPerimeter=0;" edge="1" parent="WIyWlLk6GJQsqaUBKTNV-1" source="WIyWlLk6GJQsqaUBKTNV-3" target="jeXCtuGHeavRpmJprHFc-2">
          <mxGeometry relative="1" as="geometry" />
        </mxCell>
        <mxCell id="jeXCtuGHeavRpmJprHFc-6" value="Settings Menu Opens" style="rounded=1;whiteSpace=wrap;html=1;absoluteArcSize=1;arcSize=14;strokeWidth=2;" vertex="1" parent="WIyWlLk6GJQsqaUBKTNV-1">
          <mxGeometry x="165" y="350" width="160" height="40" as="geometry" />
        </mxCell>
        <mxCell id="jeXCtuGHeavRpmJprHFc-9" style="edgeStyle=orthogonalEdgeStyle;rounded=0;orthogonalLoop=1;jettySize=auto;html=1;" edge="1" parent="WIyWlLk6GJQsqaUBKTNV-1" source="jeXCtuGHeavRpmJprHFc-10" target="jeXCtuGHeavRpmJprHFc-12">
          <mxGeometry relative="1" as="geometry" />
        </mxCell>
        <mxCell id="jeXCtuGHeavRpmJprHFc-10" value="Load Game Clicked" style="strokeWidth=2;html=1;shape=mxgraph.flowchart.decision;whiteSpace=wrap;" vertex="1" parent="WIyWlLk6GJQsqaUBKTNV-1">
          <mxGeometry x="445" y="170" width="100" height="80" as="geometry" />
        </mxCell>
        <mxCell id="jeXCtuGHeavRpmJprHFc-12" value="Previous Game opens at save point" style="rounded=1;whiteSpace=wrap;html=1;absoluteArcSize=1;arcSize=14;strokeWidth=2;" vertex="1" parent="WIyWlLk6GJQsqaUBKTNV-1">
          <mxGeometry x="415" y="350" width="160" height="40" as="geometry" />
        </mxCell>
        <mxCell id="jeXCtuGHeavRpmJprHFc-13" style="edgeStyle=orthogonalEdgeStyle;rounded=0;orthogonalLoop=1;jettySize=auto;html=1;entryX=0.5;entryY=0;entryDx=0;entryDy=0;entryPerimeter=0;" edge="1" parent="WIyWlLk6GJQsqaUBKTNV-1" source="WIyWlLk6GJQsqaUBKTNV-3" target="jeXCtuGHeavRpmJprHFc-10">
          <mxGeometry relative="1" as="geometry" />
        </mxCell>
        <mxCell id="jeXCtuGHeavRpmJprHFc-15" value="Characters Clicked" style="rhombus;whiteSpace=wrap;html=1;shadow=0;fontFamily=Helvetica;fontSize=12;align=center;strokeWidth=1;spacing=6;spacingTop=-4;" vertex="1" parent="WIyWlLk6GJQsqaUBKTNV-1">
          <mxGeometry x="655" y="170" width="100" height="80" as="geometry" />
        </mxCell>
        <mxCell id="jeXCtuGHeavRpmJprHFc-17" style="edgeStyle=orthogonalEdgeStyle;rounded=0;orthogonalLoop=1;jettySize=auto;html=1;" edge="1" parent="WIyWlLk6GJQsqaUBKTNV-1" target="jeXCtuGHeavRpmJprHFc-20">
          <mxGeometry relative="1" as="geometry">
            <mxPoint x="1085" y="110" as="sourcePoint" />
          </mxGeometry>
        </mxCell>
        <mxCell id="jeXCtuGHeavRpmJprHFc-18" style="edgeStyle=orthogonalEdgeStyle;rounded=0;orthogonalLoop=1;jettySize=auto;html=1;entryX=0.5;entryY=0;entryDx=0;entryDy=0;" edge="1" parent="WIyWlLk6GJQsqaUBKTNV-1" source="jeXCtuGHeavRpmJprHFc-19" target="jeXCtuGHeavRpmJprHFc-29">
          <mxGeometry relative="1" as="geometry" />
        </mxCell>
        <mxCell id="jeXCtuGHeavRpmJprHFc-19" value="Pause Menu is open" style="rounded=1;whiteSpace=wrap;html=1;fontSize=12;glass=0;strokeWidth=1;shadow=0;" vertex="1" parent="WIyWlLk6GJQsqaUBKTNV-1">
          <mxGeometry x="1070" y="90" width="120" height="40" as="geometry" />
        </mxCell>
        <mxCell id="jeXCtuGHeavRpmJprHFc-45" style="edgeStyle=orthogonalEdgeStyle;rounded=0;orthogonalLoop=1;jettySize=auto;html=1;entryX=0.5;entryY=0;entryDx=0;entryDy=0;" edge="1" parent="WIyWlLk6GJQsqaUBKTNV-1" source="jeXCtuGHeavRpmJprHFc-20" target="jeXCtuGHeavRpmJprHFc-44">
          <mxGeometry relative="1" as="geometry" />
        </mxCell>
        <mxCell id="jeXCtuGHeavRpmJprHFc-20" value="Resume" style="rhombus;whiteSpace=wrap;html=1;shadow=0;fontFamily=Helvetica;fontSize=12;align=center;strokeWidth=1;spacing=6;spacingTop=-4;" vertex="1" parent="WIyWlLk6GJQsqaUBKTNV-1">
          <mxGeometry x="815" y="180" width="100" height="80" as="geometry" />
        </mxCell>
        <mxCell id="jeXCtuGHeavRpmJprHFc-21" style="edgeStyle=orthogonalEdgeStyle;rounded=0;orthogonalLoop=1;jettySize=auto;html=1;" edge="1" parent="WIyWlLk6GJQsqaUBKTNV-1" source="jeXCtuGHeavRpmJprHFc-22" target="jeXCtuGHeavRpmJprHFc-24">
          <mxGeometry relative="1" as="geometry" />
        </mxCell>
        <mxCell id="jeXCtuGHeavRpmJprHFc-22" value="Settings Clicked" style="strokeWidth=2;html=1;shape=mxgraph.flowchart.decision;whiteSpace=wrap;" vertex="1" parent="WIyWlLk6GJQsqaUBKTNV-1">
          <mxGeometry x="975" y="180" width="100" height="80" as="geometry" />
        </mxCell>
        <mxCell id="jeXCtuGHeavRpmJprHFc-23" style="edgeStyle=orthogonalEdgeStyle;rounded=0;orthogonalLoop=1;jettySize=auto;html=1;entryX=0.5;entryY=0;entryDx=0;entryDy=0;entryPerimeter=0;exitX=0;exitY=0.5;exitDx=0;exitDy=0;" edge="1" parent="WIyWlLk6GJQsqaUBKTNV-1" source="jeXCtuGHeavRpmJprHFc-19" target="jeXCtuGHeavRpmJprHFc-22">
          <mxGeometry relative="1" as="geometry">
            <mxPoint x="1020" y="110" as="sourcePoint" />
          </mxGeometry>
        </mxCell>
        <mxCell id="jeXCtuGHeavRpmJprHFc-24" value="Settings Menu Opens" style="rounded=1;whiteSpace=wrap;html=1;absoluteArcSize=1;arcSize=14;strokeWidth=2;" vertex="1" parent="WIyWlLk6GJQsqaUBKTNV-1">
          <mxGeometry x="945" y="360" width="160" height="40" as="geometry" />
        </mxCell>
        <mxCell id="jeXCtuGHeavRpmJprHFc-25" style="edgeStyle=orthogonalEdgeStyle;rounded=0;orthogonalLoop=1;jettySize=auto;html=1;" edge="1" parent="WIyWlLk6GJQsqaUBKTNV-1" source="jeXCtuGHeavRpmJprHFc-26" target="jeXCtuGHeavRpmJprHFc-27">
          <mxGeometry relative="1" as="geometry" />
        </mxCell>
        <mxCell id="jeXCtuGHeavRpmJprHFc-26" value="Save and Quit&amp;nbsp;&lt;div&gt;Clicked&lt;/div&gt;" style="strokeWidth=2;html=1;shape=mxgraph.flowchart.decision;whiteSpace=wrap;" vertex="1" parent="WIyWlLk6GJQsqaUBKTNV-1">
          <mxGeometry x="1190" y="180" width="100" height="80" as="geometry" />
        </mxCell>
        <mxCell id="jeXCtuGHeavRpmJprHFc-27" value="Game saves and quits." style="rounded=1;whiteSpace=wrap;html=1;absoluteArcSize=1;arcSize=14;strokeWidth=2;" vertex="1" parent="WIyWlLk6GJQsqaUBKTNV-1">
          <mxGeometry x="1160" y="360" width="160" height="40" as="geometry" />
        </mxCell>
        <mxCell id="jeXCtuGHeavRpmJprHFc-28" style="edgeStyle=orthogonalEdgeStyle;rounded=0;orthogonalLoop=1;jettySize=auto;html=1;entryX=0.5;entryY=0;entryDx=0;entryDy=0;entryPerimeter=0;exitX=1;exitY=0.5;exitDx=0;exitDy=0;" edge="1" parent="WIyWlLk6GJQsqaUBKTNV-1" source="jeXCtuGHeavRpmJprHFc-19" target="jeXCtuGHeavRpmJprHFc-26">
          <mxGeometry relative="1" as="geometry" />
        </mxCell>
        <mxCell id="jeXCtuGHeavRpmJprHFc-29" value="Characters Clicked" style="rhombus;whiteSpace=wrap;html=1;shadow=0;fontFamily=Helvetica;fontSize=12;align=center;strokeWidth=1;spacing=6;spacingTop=-4;" vertex="1" parent="WIyWlLk6GJQsqaUBKTNV-1">
          <mxGeometry x="1358" y="180" width="100" height="80" as="geometry" />
        </mxCell>
        <mxCell id="jeXCtuGHeavRpmJprHFc-36" style="edgeStyle=orthogonalEdgeStyle;rounded=0;orthogonalLoop=1;jettySize=auto;html=1;entryX=0.5;entryY=0;entryDx=0;entryDy=0;" edge="1" parent="WIyWlLk6GJQsqaUBKTNV-1" source="jeXCtuGHeavRpmJprHFc-30" target="jeXCtuGHeavRpmJprHFc-35">
          <mxGeometry relative="1" as="geometry" />
        </mxCell>
        <mxCell id="jeXCtuGHeavRpmJprHFc-30" value="You have a choice event" style="rounded=1;whiteSpace=wrap;html=1;" vertex="1" parent="WIyWlLk6GJQsqaUBKTNV-1">
          <mxGeometry x="290" y="597" width="120" height="40" as="geometry" />
        </mxCell>
        <mxCell id="jeXCtuGHeavRpmJprHFc-34" style="edgeStyle=orthogonalEdgeStyle;rounded=0;orthogonalLoop=1;jettySize=auto;html=1;entryX=0.5;entryY=0;entryDx=0;entryDy=0;" edge="1" parent="WIyWlLk6GJQsqaUBKTNV-1" source="jeXCtuGHeavRpmJprHFc-31" target="jeXCtuGHeavRpmJprHFc-33">
          <mxGeometry relative="1" as="geometry" />
        </mxCell>
        <mxCell id="jeXCtuGHeavRpmJprHFc-31" value="Make a choice&amp;nbsp;&lt;div&gt;(click a button)&lt;/div&gt;" style="strokeWidth=2;html=1;shape=mxgraph.flowchart.decision;whiteSpace=wrap;" vertex="1" parent="WIyWlLk6GJQsqaUBKTNV-1">
          <mxGeometry x="150" y="667" width="120" height="80" as="geometry" />
        </mxCell>
        <mxCell id="jeXCtuGHeavRpmJprHFc-32" style="edgeStyle=orthogonalEdgeStyle;rounded=0;orthogonalLoop=1;jettySize=auto;html=1;entryX=0.5;entryY=0;entryDx=0;entryDy=0;entryPerimeter=0;" edge="1" parent="WIyWlLk6GJQsqaUBKTNV-1" source="jeXCtuGHeavRpmJprHFc-30" target="jeXCtuGHeavRpmJprHFc-31">
          <mxGeometry relative="1" as="geometry" />
        </mxCell>
        <mxCell id="jeXCtuGHeavRpmJprHFc-33" value="Choice occurs" style="rounded=1;whiteSpace=wrap;html=1;" vertex="1" parent="WIyWlLk6GJQsqaUBKTNV-1">
          <mxGeometry x="160" y="787" width="100" height="40" as="geometry" />
        </mxCell>
        <mxCell id="jeXCtuGHeavRpmJprHFc-37" style="edgeStyle=orthogonalEdgeStyle;rounded=0;orthogonalLoop=1;jettySize=auto;html=1;entryX=0.5;entryY=1;entryDx=0;entryDy=0;exitX=0.5;exitY=1;exitDx=0;exitDy=0;" edge="1" parent="WIyWlLk6GJQsqaUBKTNV-1" source="jeXCtuGHeavRpmJprHFc-35" target="jeXCtuGHeavRpmJprHFc-30">
          <mxGeometry relative="1" as="geometry" />
        </mxCell>
        <mxCell id="jeXCtuGHeavRpmJprHFc-35" value="Don&#39;t make a choice" style="rhombus;whiteSpace=wrap;html=1;" vertex="1" parent="WIyWlLk6GJQsqaUBKTNV-1">
          <mxGeometry x="440" y="657" width="130" height="70" as="geometry" />
        </mxCell>
        <mxCell id="jeXCtuGHeavRpmJprHFc-38" style="edgeStyle=orthogonalEdgeStyle;rounded=0;orthogonalLoop=1;jettySize=auto;html=1;exitX=0.5;exitY=1;exitDx=0;exitDy=0;" edge="1" parent="WIyWlLk6GJQsqaUBKTNV-1" target="jeXCtuGHeavRpmJprHFc-39" source="jeXCtuGHeavRpmJprHFc-15">
          <mxGeometry relative="1" as="geometry">
            <mxPoint x="655" y="250" as="sourcePoint" />
          </mxGeometry>
        </mxCell>
        <mxCell id="jeXCtuGHeavRpmJprHFc-39" value="Character Menu Opens" style="rounded=1;whiteSpace=wrap;html=1;absoluteArcSize=1;arcSize=14;strokeWidth=2;" vertex="1" parent="WIyWlLk6GJQsqaUBKTNV-1">
          <mxGeometry x="625" y="350" width="160" height="40" as="geometry" />
        </mxCell>
        <mxCell id="jeXCtuGHeavRpmJprHFc-43" style="edgeStyle=orthogonalEdgeStyle;rounded=0;orthogonalLoop=1;jettySize=auto;html=1;" edge="1" parent="WIyWlLk6GJQsqaUBKTNV-1" source="jeXCtuGHeavRpmJprHFc-40" target="jeXCtuGHeavRpmJprHFc-42">
          <mxGeometry relative="1" as="geometry" />
        </mxCell>
        <mxCell id="jeXCtuGHeavRpmJprHFc-40" value="Game set up done in the background" style="rounded=1;whiteSpace=wrap;html=1;" vertex="1" parent="WIyWlLk6GJQsqaUBKTNV-1">
          <mxGeometry x="30" y="350" width="110" height="40" as="geometry" />
        </mxCell>
        <mxCell id="jeXCtuGHeavRpmJprHFc-42" value="Game begins" style="rounded=1;whiteSpace=wrap;html=1;" vertex="1" parent="WIyWlLk6GJQsqaUBKTNV-1">
          <mxGeometry x="32.5" y="440" width="105" height="50" as="geometry" />
        </mxCell>
        <mxCell id="jeXCtuGHeavRpmJprHFc-44" value="Pause menu closes" style="rounded=1;whiteSpace=wrap;html=1;" vertex="1" parent="WIyWlLk6GJQsqaUBKTNV-1">
          <mxGeometry x="810" y="360" width="110" height="40" as="geometry" />
        </mxCell>
        <mxCell id="jeXCtuGHeavRpmJprHFc-46" style="edgeStyle=orthogonalEdgeStyle;rounded=0;orthogonalLoop=1;jettySize=auto;html=1;exitX=0.5;exitY=1;exitDx=0;exitDy=0;" edge="1" parent="WIyWlLk6GJQsqaUBKTNV-1" target="jeXCtuGHeavRpmJprHFc-47" source="jeXCtuGHeavRpmJprHFc-29">
          <mxGeometry relative="1" as="geometry">
            <mxPoint x="1410" y="270" as="sourcePoint" />
          </mxGeometry>
        </mxCell>
        <mxCell id="jeXCtuGHeavRpmJprHFc-47" value="Character Menu Opens" style="rounded=1;whiteSpace=wrap;html=1;absoluteArcSize=1;arcSize=14;strokeWidth=2;" vertex="1" parent="WIyWlLk6GJQsqaUBKTNV-1">
          <mxGeometry x="1328" y="360" width="160" height="40" as="geometry" />
        </mxCell>
      </root>
    </mxGraphModel>
  </diagram>
</mxfile>
